<?xml version="1.0" encoding="utf-8"?>
<!-- Generator: Adobe Illustrator 14.0.0, SVG Export Plug-In . SVG Version: 6.00 Build 43363)  -->
<!DOCTYPE svg PUBLIC "-//W3C//DTD SVG 1.1//EN" "http://www.w3.org/Graphics/SVG/1.1/DTD/svg11.dtd">
<svg version="1.1" id="Layer_1" xmlns="http://www.w3.org/2000/svg" xmlns:xlink="http://www.w3.org/1999/xlink" x="0px" y="0px"
	 width="2528px" height="2720px" viewBox="0 0 2528 2720" enable-background="new 0 0 2528 2720" xml:space="preserve">
<path fill="#95A797" d="M1151.465,1555.052c7.498,7.253,13.285,19.844,13.285,36.56c0,19.97-9.247,32.806-15.641,38.338
	c-2.434,2.542-3.011,4.291-1.896,6.765c1.857,3.529,3.47,9.169,3.47,14.858c0,5.415-1.467,10.821-3.226,14.37h0.009
	c-0.694,1.73-0.89,3.03-0.665,4.115c-0.088,0.801,0.146,1.408,0.87,1.975c6.335,4.731,17.078,17.977,17.078,39.501
	c0,19.981-9.257,32.816-15.65,38.33l0.01,0.009c-2.434,2.542-3.011,4.292-1.896,6.755c1.857,3.529,3.47,9.179,3.47,14.868
	c0,5.425-1.476,10.821-3.226,14.369h0.009c-0.694,1.721-0.89,3.031-0.665,4.116c-0.088,0.802,0.146,1.408,0.87,1.965
	c6.335,4.741,17.078,17.977,17.078,39.502c0,19.971-9.247,32.806-15.641,38.338c-2.434,2.551-3.011,4.292-1.896,6.765
	c1.857,3.539,3.47,9.189,3.47,14.858c0,5.425-1.467,10.821-3.226,14.37h0.009c-0.694,1.729-0.89,3.04-0.665,4.115
	c-0.088,0.811,0.146,1.417,0.87,1.975c6.335,4.74,17.078,17.976,17.078,39.501c0,19.971-9.247,32.807-15.641,38.34
	c-2.434,2.541-3.011,4.291-1.896,6.765c1.857,3.528,3.47,9.179,3.47,14.857c0,5.415-1.476,10.821-3.226,14.37h0.009
	c-0.694,1.73-0.89,3.03-0.665,4.115c-0.088,0.802,0.146,1.406,0.87,1.974c6.335,4.732,17.078,17.978,17.078,39.502
	c0,19.981-9.257,32.816-15.65,38.33l0.01,0.01c-2.434,2.541-3.011,4.281-1.896,6.755c1.857,3.527,3.47,9.178,3.47,14.857
	c0,5.426-1.476,10.831-3.226,14.38h0.009c-0.694,1.721-0.89,3.03-0.665,4.114c-0.088,0.803,0.146,1.408,0.87,1.965
	c6.335,4.742,17.078,17.978,17.078,39.502c0,19.972-9.247,32.807-15.641,38.34c-2.434,2.551-3.011,4.291-1.896,6.764
	c1.857,3.528,3.47,9.179,3.47,14.858c0,5.426-1.467,10.821-3.226,14.37h0.009c-0.694,1.73-0.89,3.04-0.665,4.114
	c-0.088,0.812,0.146,1.419,0.87,1.976c6.335,4.741,17.078,17.977,17.078,39.502c0,17.262-7.342,29.726-14.575,36.872
	c-7.253,7.497-19.844,13.274-36.56,13.274c-19.97,0-32.815-9.247-38.338-15.64l-0.01-0.01c-2.532-2.415-4.272-3.001-6.735-1.887
	c-0.01,0-0.01,0.01-0.02,0.01c-3.529,1.857-9.18,3.47-14.858,3.47c-5.416,0-10.821-1.477-14.37-3.226
	c-0.009,0-0.009-0.009-0.02-0.009c-1.721-0.676-3.01-0.871-4.096-0.646c-0.802-0.088-1.407,0.146-1.975,0.869
	c-4.731,6.324-17.977,17.067-39.501,17.067c-19.971,0-32.816-9.247-38.338-15.64c-2.542-2.435-4.282-3.011-6.755-1.887
	c-3.529,1.857-9.18,3.47-14.858,3.47c-5.426,0-10.831-1.477-14.379-3.226c-1.722-0.685-3.031-0.88-4.115-0.654
	c-0.803-0.088-1.408,0.146-1.966,0.869c-4.741,6.324-17.977,17.067-39.502,17.067c-19.971,0-32.815-9.247-38.339-15.64l-0.009-0.01
	c-2.542-2.425-4.282-3.001-6.746-1.877h-0.009c-3.529,1.857-9.179,3.47-14.859,3.47c-5.425,0-10.82-1.466-14.369-3.226
	c-0.01,0-0.01-0.009-0.02-0.009c-1.72-0.676-3.021-0.871-4.096-0.646c-0.812-0.088-1.417,0.146-1.975,0.869
	c-4.741,6.324-17.977,17.067-39.502,17.067c-19.971,0-32.815-9.247-38.338-15.64l-0.01-0.01c-2.533-2.425-4.281-3.001-6.745-1.877
	h-0.01c-3.529,1.857-9.169,3.47-14.858,3.47c-5.416,0-10.822-1.477-14.37-3.226c-0.01,0-0.01-0.009-0.02-0.009
	c-1.721-0.676-3.011-0.871-4.096-0.646c-0.802-0.088-1.407,0.146-1.975,0.869c-4.73,6.324-17.977,17.067-39.502,17.067
	c-19.971,0-32.815-9.247-38.338-15.64c-2.533-2.425-4.272-3.011-6.736-1.896c-0.009,0-0.009,0.01-0.019,0.01
	c-3.539,1.857-9.189,3.47-14.858,3.47c-5.426,0-10.831-1.477-14.38-3.226c-1.72-0.685-3.03-0.88-4.115-0.654
	c-0.802-0.088-1.408,0.146-1.965,0.869c-4.741,6.324-17.977,17.067-39.502,17.067c-19.972,0-32.815-9.247-38.339-15.64l-0.01-0.01
	c-2.541-2.415-4.271-3.001-6.734-1.887c-0.01,0-0.01,0.01-0.021,0.01c-3.538,1.857-9.188,3.47-14.857,3.47
	c-5.426,0-10.821-1.466-14.37-3.226c-0.01,0-0.01-0.009-0.02-0.009c-1.721-0.676-3.021-0.871-4.096-0.646
	c-0.812-0.088-1.418,0.146-1.975,0.869c-4.741,6.324-17.977,17.067-39.502,17.067c-17.263,0-29.727-7.331-36.872-14.565
	c-7.498-7.253-13.275-19.843-13.275-36.559c0-19.972,9.247-32.806,15.641-38.339c2.435-2.551,3.011-4.291,1.887-6.764
	c-1.857-3.529-3.471-9.18-3.471-14.859c0-5.425,1.467-10.821,3.227-14.369c0-0.01,0.01-0.01,0.01-0.02
	c0.685-1.721,0.87-3.021,0.646-4.096c0.088-0.812-0.147-1.418-0.86-1.976c-6.335-4.74-17.078-17.976-17.078-39.502
	c0-19.971,9.247-32.806,15.641-38.338c2.435-2.541,3.011-4.291,1.887-6.765c-1.857-3.529-3.471-9.169-3.471-14.858
	c0-5.415,1.467-10.821,3.227-14.369c0-0.01,0.01-0.01,0.01-0.02c0.685-1.721,0.87-3.011,0.646-4.097
	c0.088-0.801-0.147-1.407-0.86-1.975c-6.335-4.73-17.078-17.977-17.078-39.502c0-19.979,9.258-32.815,15.65-38.328l-0.01-0.01
	c2.435-2.542,3.011-4.281,1.887-6.755c-1.857-3.529-3.471-9.179-3.471-14.868c0-5.425,1.477-10.821,3.227-14.37
	c0.694-1.72,0.88-3.029,0.655-4.115c0.088-0.802-0.147-1.407-0.86-1.964c-6.335-4.741-17.078-17.978-17.078-39.502
	c0-19.971,9.247-32.807,15.641-38.339c2.435-2.552,3.011-4.292,1.887-6.765c-1.857-3.539-3.471-9.189-3.471-14.858
	c0-5.425,1.467-10.821,3.227-14.37c0-0.01,0.01-0.01,0.01-0.02c0.685-1.72,0.87-3.02,0.646-4.096
	c0.088-0.811-0.147-1.417-0.86-1.975c-6.335-4.741-17.078-17.976-17.078-39.501c0-19.971,9.247-32.806,15.641-38.338
	c2.435-2.542,3.011-4.292,1.887-6.765c-1.857-3.529-3.471-9.179-3.471-14.858c0-5.416,1.477-10.821,3.227-14.37
	c0-0.01,0.01-0.01,0.01-0.02c0.685-1.721,0.87-3.011,0.646-4.096c0.088-0.802-0.147-1.408-0.86-1.975
	c-6.335-4.731-17.078-17.977-17.078-39.502c0-19.981,9.258-32.815,15.65-38.329l-0.01-0.01c2.435-2.542,3.011-4.282,1.887-6.754
	c-1.857-3.529-3.471-9.179-3.471-14.858c0-5.425,1.477-10.831,3.227-14.379c0.694-1.72,0.88-3.031,0.655-4.106
	c0.088-0.811-0.147-1.417-0.86-1.975c-6.335-4.741-17.078-17.977-17.078-39.501c0-17.273,7.332-29.727,14.565-36.873
	c7.253-7.498,19.844-13.284,36.56-13.284c19.971,0,32.806,9.247,38.339,15.64c2.541,2.424,4.281,3.011,6.744,1.906
	c0.011,0,0.011-0.01,0.021-0.01c3.538-1.857,9.188-3.47,14.858-3.47c5.425,0,10.82,1.466,14.369,3.226v-0.009
	c1.73,0.694,3.04,0.889,4.115,0.665c0.812,0.088,1.417-0.147,1.975-0.871c4.741-6.334,17.977-17.077,39.502-17.077
	c19.971,0,32.806,9.247,38.339,15.64c2.531,2.424,4.281,3.011,6.745,1.906c0.01,0,0.01-0.01,0.019-0.01
	c3.529-1.857,9.179-3.47,14.859-3.47c5.415,0,10.821,1.476,14.369,3.226v-0.009c1.73,0.694,3.03,0.889,4.116,0.665
	c0.801,0.088,1.406-0.147,1.974-0.871c4.731-6.334,17.978-17.077,39.502-17.077c19.981,0,32.816,9.257,38.329,15.649l0.01-0.009
	c2.542,2.434,4.281,3.011,6.754,1.896c3.529-1.857,9.18-3.47,14.868-3.47c5.426,0,10.822,1.476,14.37,3.226v-0.009
	c1.721,0.694,3.03,0.889,4.115,0.665c0.802,0.088,1.408-0.147,1.965-0.871c4.741-6.334,17.978-17.077,39.502-17.077
	c19.971,0,32.806,9.247,38.339,15.64c2.551,2.434,4.291,3.011,6.754,1.896h0.011c3.528-1.857,9.179-3.47,14.857-3.47
	c5.426,0,10.822,1.466,14.37,3.226v-0.009c1.73,0.694,3.041,0.889,4.115,0.665c0.812,0.088,1.418-0.147,1.975-0.871
	c4.741-6.334,17.978-17.077,39.502-17.077c19.972,0,32.807,9.247,38.339,15.64c2.541,2.434,4.291,3.011,6.755,1.896h0.01
	c3.528-1.857,9.169-3.47,14.858-3.47c5.416,0,10.821,1.466,14.369,3.226v-0.009c1.73,0.694,3.03,0.889,4.115,0.665
	c0.802,0.088,1.408-0.147,1.975-0.871c4.731-6.334,17.977-17.077,39.502-17.077c19.981,0,32.815,9.257,38.329,15.649l0.01-0.009
	c2.542,2.434,4.281,3.011,6.755,1.896c3.529-1.857,9.179-3.47,14.858-3.47c5.425,0,10.831,1.476,14.379,3.226v-0.009
	c1.72,0.694,3.03,0.889,4.106,0.665c0.811,0.088,1.417-0.147,1.974-0.871c4.741-6.334,17.977-17.077,39.502-17.077
	C1131.866,1540.477,1144.32,1547.818,1151.465,1555.052z M1147.154,2311.129c0-4.076-0.527-7.615-1.329-10.645
	c-0.392-1.438-2.297-2.699-4.331-1.595c-2.933,1.887-6.921,3.353-12.268,3.353h-13.275c0,0-5.63,0.04-3.714,4.527
	c0.322,1.582,0.488,3.216,0.488,4.896v18.545c0,3.401-0.635,6.401-1.75,9.002c-0.655,1.535-1.505,4.468,2.639,4.468
	c15.083,0,22.122-6.062,23.911-7.918c0.098-0.088,0.186-0.187,0.284-0.284C1140.615,2332.703,1147.154,2324.776,1147.154,2311.129z
	 M1143.411,1594.573c2.874,1.994,3.744-1.173,3.744-2.961c0-15.074-6.06-22.112-7.927-23.911c-0.088-0.098-0.186-0.186-0.284-0.283
	c-2.776-2.806-10.704-9.345-24.351-9.345c-3.724,0-7.009,0.44-9.863,1.134c-1.759,0.43-3.979,2.404-1.75,5.621
	c1.701,3.049,2.727,6.793,2.727,11.173v13.734c0,0-0.694,4.389,3.929,3.392c1.76-0.411,3.607-0.626,5.504-0.626h18.534
	C1137.644,1592.5,1140.85,1593.351,1143.411,1594.573z M1140.615,1713.215c0.009-0.557,0.019-1.114,0.019-1.682
	c0-2.297-0.117-4.506-0.351-6.618c-0.597-4.173-2.346-4.877-5.915-4.877h-17.742c-1.701,0-3.236,0.851-2.942,3.764v0.009
	c0.312,2.444,0.479,5.015,0.479,7.722c0,0.431,0,0.851-0.02,1.271h0.02c0,1.564,0.665,2.219,2.463,2.219h21.232
	c1.906,0,2.63-0.841,2.757-1.799C1140.615,1713.225,1140.615,1713.225,1140.615,1713.215z M1140.615,1833.139
	c0.009-0.558,0.019-1.125,0.019-1.691c0-2.297-0.117-4.506-0.351-6.618c-0.597-4.165-2.346-4.878-5.915-4.878h-17.742
	c-1.691,0-3.226,0.851-2.942,3.744c0,0.01,0,0.029,0,0.04c0.312,2.443,0.479,5.014,0.479,7.712c0,0.43,0,0.86-0.02,1.28h0.02
	c0,1.564,0.665,2.219,2.463,2.219h21.232c1.906,0,2.63-0.851,2.757-1.799C1140.615,1833.139,1140.615,1833.139,1140.615,1833.139z
	 M1140.615,1953.062c0.009-0.558,0.019-1.125,0.019-1.692c0-2.297-0.117-4.506-0.351-6.617c-0.597-4.164-2.346-4.878-5.915-4.878
	h-17.742c-1.691,0-3.226,0.851-2.942,3.744c0,0.01,0,0.028,0,0.039c0.312,2.444,0.479,5.015,0.479,7.712c0,0.43,0,0.851-0.02,1.271
	h0.02c0,1.574,0.665,2.219,2.463,2.219h21.232c1.906,0,2.63-0.841,2.757-1.789
	C1140.615,1953.062,1140.615,1953.062,1140.615,1953.062z M1140.615,2072.984c0.009-0.558,0.019-1.124,0.019-1.691
	c0-2.297-0.117-4.506-0.351-6.617c-0.597-4.174-2.346-4.878-5.915-4.878h-17.742c-1.701,0-3.226,0.851-2.942,3.754
	c0,0.009,0,0.009,0,0.02c0.312,2.443,0.479,5.015,0.479,7.722c0,0.431,0,0.852-0.02,1.271h0.02c0,1.563,0.665,2.219,2.463,2.219
	h21.232c1.906,0,2.63-0.84,2.757-1.789C1140.615,2072.984,1140.615,2072.984,1140.615,2072.984z M1140.615,2192.888
	c0.009-0.558,0.019-1.115,0.019-1.683c0-2.297-0.117-4.506-0.351-6.617c-0.597-4.164-2.346-4.878-5.915-4.878h-17.742
	c-1.691,0-3.226,0.851-2.942,3.744c0,0.009,0,0.029,0,0.039c0.312,2.443,0.479,5.015,0.479,7.712c0,0.431,0,0.861-0.02,1.281h0.02
	c0,1.563,0.665,2.219,2.463,2.219h21.232c1.906,0,2.63-0.85,2.757-1.809C1140.615,2192.897,1140.615,2192.897,1140.615,2192.888z
	 M1136.627,1613.019c0.586-1.701-0.059-2.923-2.953-2.923h-18.534c-2.18,0-4.066,0.821-5.044,3.079
	c-1.535,3.744-3.363,6.96-5.249,9.648h0.009c-1.076,1.466-0.674,2.258,1.71,2.258h18.437c3.676,0,5.483-1.104,6.315-2.258
	C1133.235,1620.096,1135.092,1616.831,1136.627,1613.019z M1136.627,2212.614c0.586-1.691-0.059-2.923-2.953-2.923h-18.534
	c-2.18,0-4.066,0.821-5.044,3.079c-1.535,3.744-3.363,6.961-5.249,9.648h0.009c-1.076,1.467-0.674,2.268,1.71,2.268h18.437
	c3.676,0,5.483-1.104,6.315-2.268l0.009,0.01C1133.235,2219.701,1135.082,2216.426,1136.627,2212.614z M1136.597,1733.01
	c0.636-1.73,0.01-2.991-2.922-2.991h-18.534c-2.18,0-4.066,0.812-5.044,3.069c-1.525,3.744-3.354,6.96-5.24,9.648
	c-1.076,1.466-0.674,2.268,1.71,2.268h18.437c3.676,0,5.483-1.104,6.315-2.268l0.009,0.01c1.887-2.688,3.715-5.914,5.24-9.658
	C1136.578,1733.059,1136.587,1733.04,1136.597,1733.01z M1136.597,1852.934c0.636-1.73,0.01-3.001-2.922-3.001h-18.534
	c-2.18,0-4.066,0.821-5.044,3.079c-1.535,3.744-3.363,6.96-5.249,9.648h0.009c-1.076,1.466-0.674,2.268,1.71,2.268h18.437
	c3.676,0,5.483-1.105,6.315-2.268l0.009,0.01c1.887-2.688,3.715-5.914,5.24-9.658
	C1136.578,1852.982,1136.587,1852.962,1136.597,1852.934z M1136.597,1972.847c0.636-1.731,0.01-2.992-2.922-2.992h-18.534
	c-2.18,0-4.066,0.812-5.044,3.07c-1.535,3.743-3.354,6.969-5.249,9.657h0.009c-1.076,1.466-0.674,2.258,1.71,2.258h18.437
	c3.676,0,5.483-1.104,6.315-2.258c1.896-2.698,3.724-5.914,5.249-9.657C1136.578,1972.895,1136.587,1972.875,1136.597,1972.847z
	 M1136.597,2092.77c0.636-1.731,0.01-2.992-2.922-2.992h-18.534c-2.18,0-4.066,0.812-5.044,3.07
	c-1.525,3.744-3.354,6.959-5.24,9.647c-1.076,1.466-0.674,2.268,1.71,2.268h18.437c3.676,0,5.483-1.104,6.315-2.268l0.009,0.01
	c1.887-2.688,3.715-5.913,5.24-9.657C1136.578,2092.819,1136.587,2092.798,1136.597,2092.77z M1129.227,1685.043
	c3.646,0,4.086-1.574,2.913-3.51c-0.01-0.02-0.029-0.049-0.039-0.068c-2.913-4.438-6.061-7.586-8.534-9.433
	c-0.664-0.567-2.698-1.975-4.125-1.975h-21.3c-1.369,0-1.857,1.33-1.046,1.975c2.688,2.014,6.168,5.552,9.286,10.616
	c1.144,1.408,2.6,2.396,5.641,2.396H1129.227z M1129.227,2044.802c3.646,0,4.086-1.573,2.913-3.509
	c-0.01-0.02-0.029-0.05-0.039-0.069c-2.913-4.438-6.061-7.585-8.534-9.434c-0.664-0.567-2.698-1.974-4.125-1.974h-21.3
	c-1.369,0-1.857,1.329-1.046,1.974c2.678,2.005,6.158,5.543,9.267,10.587c1.144,1.428,2.601,2.425,5.66,2.425H1129.227z
	 M1129.227,1804.966c3.686,0,4.096-1.623,2.874-3.578c-2.913-4.438-6.061-7.595-8.534-9.443c-0.664-0.557-2.698-1.975-4.125-1.975
	h-21.3v0.01c-1.369,0-1.857,1.33-1.046,1.965c2.678,2.004,6.158,5.542,9.267,10.587c1.144,1.427,2.601,2.434,5.66,2.434H1129.227z
	 M1129.227,1924.889c3.686,0,4.096-1.623,2.874-3.578c-2.903-4.438-6.061-7.585-8.534-9.442c-0.664-0.558-2.698-1.975-4.125-1.975
	h-21.3c-1.369,0-1.857,1.339-1.046,1.975c2.678,2.004,6.158,5.542,9.267,10.586c1.144,1.427,2.601,2.435,5.66,2.435H1129.227z
	 M1129.227,2164.725c3.686,0,4.096-1.623,2.874-3.578c-2.913-4.438-6.061-7.586-8.534-9.443c-0.664-0.557-2.698-1.974-4.125-1.974
	h-21.3c-1.369,0.009-1.857,1.339-1.046,1.974c2.688,2.015,6.187,5.573,9.306,10.655c1.144,1.389,2.61,2.366,5.621,2.366H1129.227z
	 M1129.227,2284.647c3.686,0,4.096-1.621,2.874-3.576c-2.913-4.438-6.061-7.587-8.534-9.443c-0.664-0.557-2.698-1.976-4.125-1.976
	h-21.3c-1.369,0-1.857,1.33-1.046,1.976c2.688,2.014,6.187,5.572,9.306,10.654c1.144,1.388,2.61,2.365,5.621,2.365H1129.227z
	 M1126.548,1652.882c0.02-0.439,0.029-0.87,0.029-1.31c0-3.079-0.469-6.139-1.202-8.866c0-0.01-0.01-0.02-0.01-0.029
	c-1.144-2.454-3.157-2.6-5.239-2.6h-18.25c-2.777,0-3.354,0.528-2.815,3.236c0.01,0.019,0.01,0.048,0.019,0.078
	c0.636,2.542,1.026,5.357,1.026,8.182c0,0.322,0,0.635-0.019,0.958c0,0.039,0,0.068,0,0.098c0,1.417,0.615,2.326,2.649,2.434h20.245
	c0.078,0,0.146,0,0.225,0C1125.121,1655.062,1126.401,1654.241,1126.548,1652.882z M1126.548,1772.796
	c0.02-0.431,0.029-0.87,0.029-1.3c0-3.079-0.469-6.139-1.202-8.866c0-0.01-0.01-0.02-0.01-0.029c-1.144-2.463-3.157-2.61-5.239-2.61
	h-18.25c-2.777,0-3.354,0.538-2.815,3.245c0.01,0.02,0.01,0.049,0.019,0.078c0.636,2.542,1.026,5.357,1.026,8.182
	c0,0.323,0,0.635-0.019,0.958c0,0.039,0,0.068,0,0.098c0,1.496,0.694,2.434,3.05,2.434c0.088,0,0.176,0,0.273,0h19.57
	c0.078,0,0.146,0,0.225,0C1125.121,1774.985,1126.401,1774.165,1126.548,1772.796z M1126.548,1892.718
	c0.02-0.439,0.029-0.87,0.029-1.31c0-3.069-0.469-6.139-1.202-8.866c0-0.01-0.01-0.02-0.01-0.029
	c-1.144-2.453-3.157-2.601-5.239-2.601h-18.25c-2.787,0-3.354,0.538-2.806,3.266c0,0.02,0.009,0.029,0.009,0.048
	c0.636,2.551,1.026,5.367,1.026,8.182c0,0.323,0,0.635-0.019,0.958c0,0.039,0,0.068,0,0.098c0,1.506,0.694,2.444,3.05,2.444
	c0.088,0,0.176,0,0.273,0h19.57c0.078,0,0.146,0,0.225,0C1125.121,1894.908,1126.401,1894.087,1126.548,1892.718z
	 M1126.548,2012.641c0.02-0.439,0.029-0.869,0.029-1.31c0-3.08-0.469-6.139-1.202-8.866c0-0.01-0.01-0.02-0.01-0.029
	c-1.144-2.453-3.157-2.6-5.239-2.6h-18.25c-2.777,0-3.354,0.527-2.815,3.235c0.01,0.02,0.01,0.048,0.019,0.078
	c0.636,2.542,1.026,5.356,1.026,8.182c0,0.322,0,0.636-0.019,0.958c0,0.039,0,0.069,0,0.098c0,1.418,0.615,2.327,2.649,2.435h20.245
	c0.078,0,0.146,0,0.225,0C1125.121,2014.822,1126.401,2014,1126.548,2012.641z M1126.548,2132.554c0.02-0.439,0.029-0.87,0.029-1.31
	c0-3.069-0.469-6.129-1.202-8.856c0-0.011-0.01-0.02-0.01-0.029c-1.144-2.463-3.157-2.61-5.239-2.61h-18.25
	c-2.777,0-3.354,0.539-2.815,3.246c0.01,0.02,0.01,0.049,0.019,0.078c0.636,2.541,1.026,5.356,1.026,8.172
	c0,0.322,0,0.646-0.019,0.958c0,0.039,0,0.069,0,0.098c0,1.505,0.694,2.443,3.05,2.443c0.088,0,0.176,0,0.273,0h19.57
	c0.078,0,0.146,0,0.225,0C1125.121,2134.744,1126.401,2133.923,1126.548,2132.554z M1126.548,2252.478
	c0.02-0.44,0.029-0.87,0.029-1.311c0-3.068-0.469-6.139-1.202-8.866c0-0.01-0.01-0.02-0.01-0.029
	c-1.144-2.453-3.157-2.601-5.239-2.601h-18.25c-2.787,0-3.354,0.538-2.806,3.265c0,0.021,0.009,0.031,0.009,0.05
	c0.636,2.551,1.026,5.367,1.026,8.182c0,0.322,0,0.636-0.019,0.958c0,0.039,0,0.068,0,0.098c0,1.516,0.703,2.443,3.079,2.443
	c0.078,0,0.166,0,0.244,0h19.57c0.078,0,0.146,0,0.225,0C1125.121,2254.667,1126.401,2253.836,1126.548,2252.478z M1095.13,2330.211
	v-18.545c0-2.17-0.821-4.057-3.069-5.044c-3.744-1.524-6.97-3.353-9.658-5.239c-0.088-0.068-0.177-0.128-0.264-0.186
	c-1.3-0.821-1.995-0.343-1.995,1.906v18.426c0,3.685,1.104,5.484,2.259,6.325c2.698,1.887,5.914,3.724,9.658,5.239
	C1093.83,2333.779,1095.13,2333.192,1095.13,2330.211z M1088.112,1593.205V1576c0-3.686-1.623-4.096-3.578-2.874
	c-4.438,2.904-7.585,6.061-9.443,8.534c-0.557,0.665-1.974,2.698-1.974,4.125v21.3c0.009,1.369,1.339,1.857,1.974,1.046
	c2.004-2.679,5.543-6.158,10.587-9.267C1087.105,1597.721,1088.112,1596.264,1088.112,1593.205z M1065.149,2316.652v-18.241
	c0-2.813-0.537-3.361-3.313-2.795c-2.542,0.626-5.357,1.026-8.182,1.026c-0.362,0-0.724-0.01-1.085-0.021
	c-1.397,0-2.297,0.627-2.405,2.66v20.234c0,0.078,0,0.146,0,0.225c0,1.965,0.86,3.256,2.278,3.344
	c0.401,0.02,0.812,0.029,1.212,0.029c3.079,0,6.139-0.479,8.866-1.202c0.01,0,0.02-0.01,0.029-0.01
	C1065.003,2320.749,1065.149,2318.745,1065.149,2316.652z M1058.131,1602.09c0-0.088,0-0.176,0-0.274v-19.57
	c0-0.078,0-0.146,0-0.225c0-1.916-0.821-3.196-2.19-3.343c-0.44-0.02-0.87-0.03-1.31-0.03c-3.069,0-6.13,0.469-8.856,1.202
	c-0.01,0-0.02,0.01-0.029,0.01c-2.464,1.144-2.61,3.157-2.61,5.239v18.25c0,2.786,0.538,3.353,3.266,2.806
	c0.019,0,0.029-0.01,0.048-0.01c2.551-0.636,5.367-1.026,8.182-1.026c0.352,0,0.704,0.01,1.056,0.02
	C1057.193,1605.14,1058.131,1604.446,1058.131,1602.09z M1035.169,2315.978v-21.312c0-1.357-1.33-1.846-1.975-1.045
	c-2.004,2.679-5.522,6.14-10.547,9.238c-1.447,1.152-2.463,2.609-2.463,5.699v17.203c0,3.638,1.574,4.086,3.509,2.914
	c0.021-0.01,0.05-0.029,0.069-0.04c4.438-2.922,7.585-6.069,9.433-8.543C1033.762,2319.428,1035.169,2317.405,1035.169,2315.978z
	 M1028.15,1598.659v-18.436c0-3.676-1.104-5.484-2.268-6.315l0.009-0.01c-2.688-1.887-5.914-3.714-9.658-5.24
	c-0.029-0.01-0.049-0.02-0.078-0.029c-1.73-0.635-2.991-0.01-2.991,2.923v18.534c0,2.18,0.812,4.066,3.069,5.044
	c3.744,1.524,6.96,3.353,9.648,5.239C1027.349,1601.445,1028.15,1601.044,1028.15,1598.659z M1005.188,2330.904v-17.741
	c0-1.711-0.851-3.226-3.754-2.943c-0.01,0-0.01,0-0.02,0c-2.444,0.313-5.015,0.479-7.722,0.479c-0.43,0-0.851,0-1.271-0.019v0.019
	c-1.564,0-2.219,0.665-2.219,2.464v21.223c0,1.886,0.831,2.619,1.759,2.756c0.567,0.02,1.144,0.029,1.731,0.029
	c2.297,0,4.506-0.127,6.618-0.352C1004.485,2336.222,1005.188,2334.472,1005.188,2330.904z M998.17,1588.6v-21.222
	c0-1.896-0.831-2.63-1.77-2.757c-0.567-0.02-1.144-0.029-1.721-0.029c-2.297,0-4.506,0.117-6.617,0.352
	c-4.174,0.597-4.878,2.347-4.878,5.915v17.742c0,1.701,0.85,3.226,3.753,2.942c0.01,0,0.01,0,0.019,0
	c2.444-0.313,5.015-0.479,7.723-0.479c0.431,0,0.851,0,1.271,0.02v-0.02C997.515,1591.064,998.17,1590.399,998.17,1588.6z
	 M975.208,2330.211v-18.545c0-2.17-0.812-4.057-3.07-5.044c-3.744-1.524-6.96-3.353-9.648-5.239
	c-0.127-0.088-0.245-0.176-0.361-0.244c-1.232-0.742-1.907-0.226-1.907,1.965v18.426c0,3.685,1.104,5.484,2.268,6.325l-0.01,0.01
	c2.688,1.877,5.915,3.704,9.658,5.229C973.907,2333.779,975.208,2333.192,975.208,2330.211z M968.189,1593.205V1576
	c0-3.646-1.574-4.086-3.51-2.913c-0.019,0.01-0.048,0.03-0.068,0.039c-4.438,2.913-7.586,6.061-9.434,8.534
	c-0.566,0.665-1.975,2.698-1.975,4.125v21.3c0,1.369,1.33,1.857,1.975,1.046c2.014-2.688,5.563-6.168,10.616-9.287
	C967.201,1597.701,968.189,1596.245,968.189,1593.205z M945.236,2316.652v-18.241c0-2.813-0.547-3.361-3.323-2.795
	c-2.551,0.626-5.356,1.026-8.172,1.026c-0.362,0-0.724-0.01-1.085-0.021c-1.486,0-2.415,0.705-2.415,3.052c0,0.088,0,0.175,0,0.272
	v19.57c0,0.078,0,0.146,0,0.225c0,1.965,0.86,3.256,2.288,3.344c0.401,0.02,0.812,0.029,1.212,0.029
	c3.069,0,6.129-0.479,8.856-1.202c0.01,0,0.02-0.01,0.03-0.01C945.09,2320.749,945.236,2318.745,945.236,2316.652z
	 M938.208,1602.491v-20.244c0-0.078,0-0.146,0-0.225c0-1.916-0.821-3.196-2.18-3.343c-0.44-0.02-0.87-0.03-1.31-0.03
	c-3.08,0-6.14,0.469-8.866,1.202c-0.01,0-0.021,0.01-0.029,0.01c-2.454,1.144-2.601,3.157-2.601,5.239v18.25
	c0,2.776,0.527,3.353,3.236,2.815c0.019-0.01,0.049-0.01,0.078-0.02c2.541-0.636,5.356-1.026,8.182-1.026
	c0.352,0,0.704,0.01,1.056,0.02C937.191,1605.14,938.101,1604.524,938.208,1602.491z M915.256,2315.978v-21.312h-0.009
	c0-1.357-1.33-1.846-1.966-1.045c-2.004,2.688-5.552,6.168-10.605,9.287c-1.408,1.134-2.415,2.59-2.415,5.65v17.203
	c0,3.676,1.622,4.096,3.577,2.874c4.438-2.913,7.587-6.06,9.443-8.543C913.839,2319.428,915.256,2317.405,915.256,2315.978z
	 M908.228,1598.659v-18.436c0-3.676-1.104-5.484-2.258-6.315c-2.688-1.896-5.914-3.724-9.658-5.25
	c-0.029-0.01-0.049-0.02-0.078-0.029c-1.73-0.635-2.991-0.01-2.991,2.923v18.534c0,2.18,0.82,4.066,3.069,5.044
	c3.744,1.535,6.97,3.353,9.658,5.249v-0.01C907.436,1601.445,908.228,1601.044,908.228,1598.659z M885.275,2330.904v-17.741
	c0-1.701-0.851-3.226-3.744-2.943c-0.009,0-0.029,0-0.039,0c-2.443,0.313-5.015,0.479-7.713,0.479c-0.43,0-0.86,0-1.28-0.019v0.019
	c-1.563,0-2.219,0.665-2.219,2.464v21.223c0,1.886,0.84,2.629,1.778,2.756c0.01,0.01,0.021,0.01,0.039,0.01
	c0.558,0.01,1.115,0.02,1.682,0.02c2.298,0,4.507-0.127,6.618-0.352C884.562,2336.222,885.275,2334.472,885.275,2330.904z
	 M878.247,1588.6v-21.222c0-1.896-0.831-2.63-1.77-2.757c-0.01-0.01-0.02-0.01-0.039-0.01c-0.558-0.01-1.115-0.02-1.682-0.02
	c-2.297,0-4.506,0.117-6.617,0.352c-4.164,0.597-4.879,2.347-4.879,5.915v17.742c0,1.691,0.851,3.226,3.744,2.942
	c0.01,0,0.03,0,0.039,0c2.444-0.313,5.015-0.479,7.713-0.479c0.431,0,0.851,0,1.271,0.02v-0.02
	C877.602,1591.064,878.247,1590.399,878.247,1588.6z M855.295,2330.211v-18.545c0-2.17-0.822-4.057-3.079-5.044
	c-3.744-1.524-6.961-3.353-9.648-5.239c-0.088-0.068-0.176-0.128-0.265-0.186c-1.3-0.821-2.004-0.343-2.004,1.906v18.426
	c0,3.685,1.105,5.484,2.269,6.325c2.688,1.887,5.904,3.714,9.648,5.239C853.984,2333.779,855.295,2333.192,855.295,2330.211z
	 M848.275,1593.205V1576c0-3.686-1.623-4.096-3.578-2.874c-4.438,2.913-7.585,6.061-9.442,8.534
	c-0.557,0.665-1.975,2.698-1.975,4.125v21.3c0,1.369,1.33,1.857,1.975,1.046c2.014-2.688,5.572-6.188,10.655-9.306
	C847.298,1597.682,848.275,1596.215,848.275,1593.205z M825.313,2316.652v-18.241c0-2.813-0.547-3.361-3.313-2.795v-0.01
	c-2.552,0.636-5.367,1.036-8.183,1.036c-0.361,0-0.723-0.01-1.084-0.021c-1.486,0-2.415,0.715-2.415,3.08c0,0.078,0,0.166,0,0.244
	v19.57c0,0.078,0,0.146,0,0.225c0,1.965,0.87,3.256,2.287,3.344c0.401,0.02,0.812,0.029,1.212,0.029c3.07,0,6.14-0.479,8.867-1.202
	c0.01,0,0.019-0.01,0.029-0.01C825.167,2320.749,825.313,2318.745,825.313,2316.652z M818.295,1602.09c0-0.088,0-0.176,0-0.274
	v-19.57c0-0.078,0-0.146,0-0.225c0-1.916-0.83-3.196-2.189-3.343c-0.44-0.02-0.87-0.03-1.311-0.03c-3.068,0-6.139,0.469-8.865,1.202
	c-0.011,0-0.02,0.01-0.029,0.01c-2.454,1.144-2.601,3.157-2.601,5.239v18.25c0,2.786,0.537,3.353,3.265,2.806
	c0.02,0,0.03-0.01,0.049-0.01c2.552-0.636,5.367-1.026,8.182-1.026c0.353,0,0.704,0.01,1.057,0.02
	C817.356,1605.14,818.295,1604.446,818.295,1602.09z M795.333,2315.978v-21.312c0-1.357-1.339-1.846-1.975-1.045
	c-2.004,2.688-5.553,6.168-10.606,9.287c-1.407,1.134-2.414,2.59-2.414,5.65v17.203c0,3.676,1.622,4.096,3.577,2.874
	c4.438-2.913,7.586-6.06,9.443-8.543C793.916,2319.428,795.333,2317.405,795.333,2315.978z M788.314,1598.659v-18.436
	c0-3.676-1.104-5.484-2.269-6.315l0.011-0.01c-2.728-1.907-6.003-3.753-9.814-5.298c-1.691-0.586-2.923,0.059-2.923,2.952v18.534
	c0,2.18,0.821,4.066,3.079,5.044c3.744,1.535,6.96,3.363,9.647,5.249v-0.01C787.513,1601.445,788.314,1601.044,788.314,1598.659z
	 M765.352,2330.904v-17.741c0-1.701-0.84-3.226-3.743-2.943c-0.01,0-0.029,0-0.039,0c-2.443,0.313-5.015,0.479-7.713,0.479
	c-0.43,0-0.851,0-1.271-0.019v0.019c-1.574,0-2.22,0.665-2.22,2.464v21.223c0,1.886,0.832,2.629,1.771,2.756
	c0.009,0.01,0.019,0.01,0.039,0.01c0.558,0.01,1.113,0.02,1.681,0.02c2.298,0,4.507-0.127,6.618-0.352
	C764.639,2336.222,765.352,2334.472,765.352,2330.904z M758.334,1588.6v-21.222c0-1.896-0.842-2.63-1.779-2.757
	c-0.01-0.01-0.02-0.01-0.04-0.01c-0.556-0.01-1.113-0.02-1.681-0.02c-2.297,0-4.506,0.117-6.617,0.352
	c-4.165,0.597-4.878,2.347-4.878,5.915v17.742c0,1.691,0.851,3.226,3.744,2.942c0.009,0,0.029,0,0.039,0
	c2.443-0.313,5.015-0.479,7.712-0.479c0.431,0,0.86,0,1.281,0.02v-0.02C757.679,1591.064,758.334,1590.399,758.334,1588.6z
	 M735.371,2330.211v-18.545c0-2.17-0.812-4.057-3.068-5.044c-3.744-1.524-6.97-3.353-9.658-5.239
	c-0.088-0.068-0.176-0.128-0.265-0.186c-1.3-0.821-1.994-0.343-1.994,1.906v18.426c0,3.685,1.105,5.484,2.259,6.325
	c2.688,1.887,5.914,3.714,9.658,5.239C734.071,2333.779,735.371,2333.192,735.371,2330.211z M728.353,1593.205V1576
	c0-3.686-1.622-4.096-3.577-2.874c-4.438,2.913-7.586,6.061-9.443,8.534c-0.557,0.665-1.975,2.698-1.975,4.125v21.3h0.01
	c0,1.369,1.33,1.857,1.965,1.046c2.015-2.688,5.572-6.188,10.655-9.306C727.375,1597.682,728.353,1596.215,728.353,1593.205z
	 M705.391,2316.652v-18.241c0-2.813-0.537-3.361-3.313-2.795c-2.542,0.626-5.357,1.026-8.182,1.026c-0.362,0-0.724-0.01-1.086-0.021
	c-1.388,0-2.297,0.627-2.404,2.66v20.234c0,0.078,0,0.146,0,0.225c0,1.965,0.86,3.256,2.287,3.344
	c0.401,0.02,0.802,0.029,1.203,0.029c3.079,0,6.139-0.479,8.866-1.202c0.01,0,0.02-0.01,0.028-0.01
	C705.254,2320.749,705.391,2318.745,705.391,2316.652z M698.372,1602.09c0-0.088,0-0.176,0-0.274v-19.57c0-0.078,0-0.146,0-0.225
	c0-1.916-0.82-3.196-2.189-3.343c-0.43-0.02-0.87-0.03-1.301-0.03c-3.078,0-6.138,0.469-8.865,1.202c-0.011,0-0.02,0.01-0.029,0.01
	c-2.464,1.144-2.61,3.157-2.61,5.239v18.25c0,2.776,0.538,3.353,3.245,2.815c0.02-0.01,0.05-0.01,0.078-0.02
	c2.542-0.636,5.357-1.026,8.182-1.026c0.353,0,0.694,0.01,1.047,0.02C697.434,1605.14,698.372,1604.446,698.372,1602.09z
	 M675.41,2315.978v-21.312c0-1.357-1.329-1.846-1.975-1.045c-2.004,2.688-5.542,6.158-10.577,9.257
	c-1.427,1.153-2.434,2.61-2.434,5.681v17.203c0,3.638,1.574,4.086,3.509,2.914c0.021-0.01,0.05-0.029,0.068-0.04
	c4.438-2.922,7.586-6.069,9.434-8.543C674.003,2319.428,675.41,2317.405,675.41,2315.978z M668.392,1598.659v-18.436
	c0-3.676-1.104-5.484-2.269-6.315l0.01-0.01c-2.688-1.887-5.914-3.714-9.657-5.24c-0.029-0.01-0.049-0.02-0.079-0.029
	c-1.729-0.635-2.99-0.01-2.99,2.923v18.534c0,2.18,0.812,4.066,3.069,5.044c3.743,1.524,6.96,3.353,9.647,5.239
	C667.59,1601.445,668.392,1601.044,668.392,1598.659z M645.43,2330.904v-17.741c0-1.711-0.851-3.226-3.754-2.943
	c-0.01,0-0.01,0-0.02,0c-2.444,0.313-5.015,0.479-7.723,0.479c-0.431,0-0.851,0-1.271-0.019v0.019c-1.564,0-2.22,0.665-2.22,2.464
	v21.223c0,1.886,0.832,2.629,1.771,2.756c0.01,0.01,0.019,0.01,0.039,0.01c0.557,0.01,1.114,0.02,1.681,0.02
	c2.297,0,4.506-0.127,6.618-0.352C644.726,2336.222,645.43,2334.472,645.43,2330.904z M638.411,1588.6v-21.222
	c0-1.896-0.832-2.63-1.76-2.757c-0.566-0.02-1.145-0.029-1.73-0.029c-2.297,0-4.507,0.117-6.617,0.352
	c-4.175,0.597-4.878,2.347-4.878,5.915v17.742c0,1.701,0.851,3.226,3.753,2.942c0.01,0,0.01,0,0.02,0
	c2.443-0.313,5.016-0.479,7.723-0.479c0.431,0,0.851,0,1.271,0.02v-0.02C637.756,1591.064,638.411,1590.399,638.411,1588.6z
	 M615.448,2330.211v-18.545c0-2.17-0.811-4.057-3.068-5.044c-3.734-1.524-6.96-3.353-9.648-5.239
	c-0.127-0.088-0.244-0.176-0.362-0.244c-1.231-0.742-1.906-0.226-1.906,1.965v18.426c0,3.685,1.104,5.484,2.269,6.325l-0.01,0.01
	c2.688,1.877,5.914,3.704,9.658,5.229C614.148,2333.779,615.448,2333.192,615.448,2330.211z M608.431,1593.205V1576
	c0-3.646-1.574-4.086-3.51-2.913c-0.02,0.01-0.05,0.03-0.068,0.039c-4.429,2.913-7.585,6.061-9.434,8.534
	c-0.567,0.665-1.974,2.698-1.974,4.125v21.3c0,1.369,1.328,1.857,1.974,1.046c2.015-2.688,5.563-6.168,10.616-9.287
	C607.442,1597.701,608.431,1596.245,608.431,1593.205z M585.478,2316.652v-18.241c0-2.813-0.547-3.361-3.313-2.795v-0.01
	c-2.552,0.636-5.367,1.036-8.182,1.036c-0.362,0-0.724-0.01-1.086-0.021c-1.485,0-2.414,0.705-2.414,3.052c0,0.088,0,0.175,0,0.272
	v19.57c0,0.078,0,0.146,0,0.225c0,1.965,0.86,3.256,2.287,3.344c0.401,0.02,0.812,0.029,1.213,0.029
	c3.068,0,6.128-0.479,8.855-1.202l0.011-0.01C585.332,2320.757,585.478,2318.754,585.478,2316.652z M578.45,1602.491v-20.244
	c0-0.078,0-0.146,0-0.225c0-1.916-0.822-3.196-2.181-3.343c-0.44-0.02-0.87-0.03-1.31-0.03c-3.08,0-6.14,0.469-8.867,1.202
	c-0.009,0-0.019,0.01-0.028,0.01c-2.454,1.144-2.601,3.157-2.601,5.239v18.25c0,2.776,0.528,3.353,3.235,2.815
	c0.021-0.01,0.049-0.01,0.078-0.02c2.541-0.636,5.357-1.026,8.183-1.026c0.352,0,0.703,0.01,1.056,0.02
	C577.433,1605.14,578.342,1604.524,578.45,1602.491z M555.497,2315.978v-21.312c-0.01-1.357-1.34-1.846-1.975-1.045
	c-2.004,2.679-5.523,6.14-10.547,9.238c-1.447,1.152-2.474,2.609-2.474,5.699v17.203c0,3.676,1.623,4.096,3.578,2.874
	c4.438-2.913,7.585-6.06,9.442-8.543C554.079,2319.428,555.497,2317.405,555.497,2315.978z M548.469,1598.659v-18.436
	c0-3.676-1.105-5.484-2.259-6.315c-2.697-1.896-5.913-3.724-9.657-5.25c-0.029-0.01-0.049-0.02-0.078-0.029
	c-1.73-0.635-2.991-0.01-2.991,2.923v18.534c0,2.18,0.821,4.066,3.069,5.044c3.744,1.535,6.97,3.353,9.657,5.249v-0.01
	C547.677,1601.445,548.469,1601.044,548.469,1598.659z M525.517,2330.904v-17.741c0-1.701-0.851-3.226-3.744-2.943
	c-0.01,0-0.029,0-0.039,0c-2.444,0.313-5.015,0.479-7.713,0.479c-0.431,0-0.859,0-1.281-0.019v0.019
	c-1.563,0-2.218,0.665-2.218,2.464v21.223c0,1.886,0.83,2.619,1.769,2.756c0.567,0.02,1.144,0.029,1.73,0.029
	c2.297,0,4.506-0.127,6.618-0.352C524.802,2336.222,525.517,2334.472,525.517,2330.904z M518.487,1588.6v-21.222
	c0-1.896-0.83-2.63-1.759-2.757c-0.567-0.02-1.145-0.029-1.73-0.029c-2.298,0-4.507,0.117-6.618,0.352
	c-4.164,0.597-4.877,2.347-4.877,5.915v17.742c0,1.691,0.85,3.226,3.743,2.942c0.011,0,0.029,0,0.039,0
	c2.443-0.313,5.016-0.479,7.713-0.479c0.43,0,0.851,0,1.271,0.02v-0.02C517.843,1591.064,518.487,1590.399,518.487,1588.6z
	 M495.535,2330.211v-18.545c0-2.17-0.82-4.057-3.079-5.044c-3.744-1.524-6.96-3.353-9.648-5.239
	c-0.088-0.068-0.176-0.128-0.264-0.186c-1.3-0.821-2.003-0.343-2.003,1.906v18.426c0,3.685,1.104,5.484,2.267,6.325
	c2.688,1.887,5.904,3.714,9.648,5.239C494.226,2333.779,495.535,2333.192,495.535,2330.211z M488.518,1593.205V1576
	c0-3.686-1.623-4.096-3.578-2.874c-4.438,2.904-7.585,6.061-9.443,8.534c-0.558,0.665-1.975,2.698-1.975,4.125v21.3
	c0,1.369,1.339,1.857,1.975,1.046c2.004-2.679,5.543-6.158,10.587-9.267C487.51,1597.721,488.518,1596.264,488.518,1593.205z
	 M465.555,2316.652v-18.241c0-2.813-0.548-3.361-3.314-2.795v-0.01c-2.551,0.636-5.365,1.036-8.181,1.036
	c-0.362,0-0.724-0.01-1.086-0.021c-1.397,0-2.296,0.627-2.404,2.66v20.234c0,0.088,0,0.167,0,0.254c0,1.946,0.87,3.227,2.277,3.314
	c0.401,0.02,0.812,0.029,1.213,0.029c3.069,0,6.138-0.479,8.865-1.202c0.011,0,0.021-0.01,0.03-0.01
	C465.408,2320.749,465.555,2318.745,465.555,2316.652z M458.537,1602.09c0-0.088,0-0.176,0-0.274v-19.57c0-0.078,0-0.146,0-0.225
	c0-1.916-0.822-3.196-2.19-3.343c-0.44-0.02-0.87-0.03-1.31-0.03c-3.07,0-6.14,0.469-8.866,1.202c-0.01,0-0.021,0.01-0.03,0.01
	c-2.453,1.144-2.6,3.157-2.6,5.239v18.25c0,2.786,0.538,3.353,3.266,2.806c0.019,0,0.028-0.01,0.049-0.01
	c2.55-0.636,5.365-1.026,8.182-1.026c0.352,0,0.703,0.01,1.056,0.02C457.598,1605.14,458.537,1604.446,458.537,1602.09z
	 M435.574,2315.978v-21.312c0-1.357-1.33-1.846-1.975-1.045c-2.004,2.679-5.522,6.14-10.548,9.238
	c-1.446,1.152-2.463,2.609-2.463,5.699v17.203c0,3.676,1.612,4.096,3.567,2.874c4.438-2.913,7.586-6.06,9.443-8.543
	C434.156,2319.428,435.574,2317.405,435.574,2315.978z M428.555,1598.659v-18.436c0-3.676-1.104-5.484-2.267-6.315l0.01-0.01
	c-2.688-1.887-5.914-3.714-9.658-5.24c-0.029-0.01-0.049-0.02-0.078-0.029c-1.731-0.635-3.002-0.01-3.002,2.923v18.534
	c0,2.18,0.821,4.066,3.08,5.044c3.744,1.535,6.96,3.363,9.648,5.249v-0.01C427.754,1601.445,428.555,1601.044,428.555,1598.659z
	 M410.56,1632.11c1.358-0.01,1.848-1.339,1.045-1.975c-2.688-2.004-6.167-5.552-9.286-10.606c-1.134-1.408-2.59-2.415-5.649-2.415
	h-17.205c-3.675,0-4.096,1.623-2.873,3.578c2.912,4.438,6.06,7.585,8.543,9.442c0.665,0.558,2.688,1.975,4.115,1.975H410.56z
	 M410.56,1752.023c1.358,0,1.848-1.33,1.045-1.975c-2.678-2.004-6.158-5.543-9.257-10.577c-1.153-1.427-2.609-2.434-5.679-2.434
	h-17.205c-3.636,0-4.086,1.574-2.912,3.509c0.009,0.02,0.028,0.049,0.039,0.068c2.922,4.438,6.07,7.586,8.543,9.434
	c0.665,0.566,2.688,1.975,4.115,1.975H410.56z M410.56,1871.946c1.358,0,1.848-1.329,1.045-1.975
	c-2.668-2.003-6.138-5.522-9.237-10.547c-1.153-1.447-2.61-2.473-5.698-2.473h-17.205c-3.675,0-4.096,1.623-2.873,3.578
	c2.912,4.438,6.06,7.585,8.543,9.442c0.665,0.558,2.688,1.975,4.115,1.975H410.56z M410.56,1991.859
	c1.358,0,1.848-1.329,1.045-1.964c-2.668-2.004-6.138-5.523-9.237-10.548c-1.153-1.446-2.61-2.474-5.698-2.474h-17.205
	c-3.675,0-4.096,1.623-2.873,3.578c2.912,4.438,6.06,7.585,8.543,9.443c0.665,0.557,2.688,1.974,4.115,1.974h21.311V1991.859z
	 M410.56,2111.782c1.358,0,1.848-1.329,1.045-1.975c-2.678-2.003-6.158-5.542-9.257-10.576c-1.153-1.427-2.609-2.435-5.679-2.435
	h-17.205c-3.636,0-4.086,1.574-2.912,3.51c0.009,0.02,0.028,0.049,0.039,0.067c2.922,4.439,6.07,7.586,8.543,9.434
	c0.665,0.567,2.688,1.975,4.115,1.975H410.56z M410.56,2231.706c1.358,0,1.848-1.34,1.045-1.976
	c-2.688-2.004-6.167-5.552-9.286-10.605c-1.134-1.407-2.59-2.415-5.649-2.415h-17.205c-3.675,0-4.096,1.623-2.873,3.578
	c2.912,4.438,6.06,7.586,8.543,9.442c0.665,0.558,2.688,1.976,4.115,1.976H410.56z M406.815,1662.091
	c2.815,0,3.362-0.547,2.795-3.314h0.011c-0.636-2.551-1.037-5.367-1.037-8.182c0-0.264,0-0.528,0.021-0.782
	c0-0.098,0.01-0.186,0.01-0.274c0-1.505-0.704-2.444-3.06-2.444c-0.088,0-0.177,0-0.274,0h-19.569c-0.078,0-0.147,0-0.226,0
	c-1.964,0-3.255,0.861-3.343,2.288c-0.021,0.4-0.029,0.811-0.029,1.212c0,3.069,0.479,6.129,1.202,8.856
	c0,0.009,0.01,0.02,0.01,0.029c1.153,2.463,3.157,2.61,5.25,2.61H406.815z M406.815,1782.004c2.815,0,3.362-0.538,2.795-3.314
	c-0.625-2.542-1.026-5.356-1.026-8.182c0-0.264,0-0.518,0.021-0.782c0-0.098,0.01-0.186,0.01-0.274c0-1.417-0.626-2.326-2.659-2.434
	h-20.244c-0.078,0-0.147,0-0.226,0c-1.964,0-3.255,0.86-3.343,2.278c-0.021,0.4-0.029,0.812-0.029,1.212
	c0,3.079,0.479,6.139,1.202,8.866c0,0.01,0.01,0.02,0.01,0.029c1.153,2.454,3.157,2.6,5.25,2.6H406.815z M406.815,1901.927
	c2.815,0,3.362-0.547,2.795-3.313h0.011c-0.636-2.552-1.037-5.367-1.037-8.182c0-0.264,0-0.519,0.021-0.782
	c0-0.098,0.01-0.186,0.01-0.274c0-1.505-0.704-2.444-3.06-2.444c-0.088,0-0.177,0-0.274,0h-19.569c-0.078,0-0.147,0-0.226,0
	c-1.964,0-3.255,0.86-3.343,2.287c-0.021,0.401-0.029,0.812-0.029,1.212c0,3.069,0.479,6.139,1.202,8.866
	c0,0.01,0.01,0.02,0.01,0.029c1.153,2.454,3.157,2.6,5.25,2.6H406.815z M406.815,2021.849c2.815,0,3.362-0.547,2.795-3.323
	c-0.625-2.551-1.026-5.355-1.026-8.182c0-0.254,0-0.518,0.021-0.772c0-0.099,0.01-0.186,0.01-0.273c0-1.505-0.704-2.444-3.06-2.444
	c-0.088,0-0.177,0-0.274,0h-19.569c-0.078,0-0.147,0-0.226,0c-1.964,0-3.255,0.861-3.343,2.287
	c-0.021,0.401-0.029,0.803-0.029,1.203c0,3.08,0.479,6.139,1.202,8.866c0,0.01,0.01,0.02,0.01,0.029
	c1.153,2.464,3.157,2.609,5.25,2.609H406.815z M406.815,2141.762c2.815,0,3.362-0.536,2.795-3.313
	c-0.625-2.541-1.026-5.356-1.026-8.182c0-0.264,0-0.518,0.021-0.782c0-0.098,0.01-0.186,0.01-0.273c0-1.417-0.626-2.326-2.659-2.435
	h-20.244c-0.078,0-0.147,0-0.226,0c-1.964,0-3.255,0.861-3.343,2.277c-0.021,0.401-0.029,0.812-0.029,1.213
	c0,3.079,0.479,6.139,1.202,8.866c0,0.01,0.01,0.02,0.01,0.029c1.153,2.454,3.157,2.6,5.25,2.6H406.815z M406.815,2261.686
	c2.815,0,3.362-0.547,2.795-3.313h0.011c-0.636-2.552-1.037-5.367-1.037-8.183c0-0.264,0-0.518,0.021-0.781
	c0-0.099,0.01-0.187,0.01-0.274c0-1.505-0.704-2.443-3.06-2.443c-0.088,0-0.177,0-0.274,0h-19.569c-0.078,0-0.147,0-0.226,0
	c-1.964,0-3.255,0.86-3.343,2.287c-0.021,0.401-0.029,0.812-0.029,1.212c0,3.069,0.479,6.14,1.202,8.866
	c0,0.01,0.01,0.02,0.01,0.029c1.153,2.454,3.157,2.601,5.25,2.601H406.815z M404.4,2342.44c1.584-0.41,3.822-1.105,1.564-5.084
	c-1.848-3.128-2.972-7.01-2.972-11.594v-13.45c0,0,0.459-5.415-3.636-3.744c-1.858,0.459-3.794,0.694-5.798,0.694h-18.543
	c-3.578,0-6.54-0.694-8.964-1.721c-1.643-0.703-4.507-1.153-4.507,2.61c0,0.342,0,0.675,0.01,1.007
	c0.264,14.389,6.09,21.153,7.908,22.903c0.088,0.098,0.186,0.186,0.273,0.283c2.777,2.806,10.704,9.336,24.36,9.336
	C398.018,2343.681,401.439,2343.192,404.4,2342.44z M404.088,1678.982c0.743-1.231,0.225-1.906-1.965-1.906h-18.427
	c-3.685,0-5.483,1.105-6.324,2.268c-1.896,2.688-3.725,5.904-5.239,9.648c-0.685,1.769-0.098,3.069,2.884,3.069h18.543
	c2.16,0,4.037-0.801,5.035-3.04c0-0.009,0.009-0.02,0.009-0.029c1.526-3.744,3.354-6.96,5.24-9.648
	C403.932,1679.217,404.02,1679.1,404.088,1678.982z M404.088,2038.741c0.743-1.23,0.225-1.906-1.965-1.906h-18.427
	c-3.685,0-5.483,1.105-6.324,2.269c-1.896,2.688-3.725,5.904-5.239,9.648c-0.685,1.769-0.098,3.069,2.884,3.069h18.543
	c2.16,0,4.037-0.803,5.035-3.04c0-0.01,0.009-0.02,0.009-0.029c1.526-3.744,3.354-6.96,5.24-9.648
	C403.932,2038.976,404.02,2038.859,404.088,2038.741z M404.029,1798.994c0.82-1.301,0.343-1.995-1.906-1.995h-18.427
	c-3.636,0-5.435,1.076-6.285,2.209c-0.02,0.02-0.029,0.029-0.039,0.049c-1.887,2.698-3.725,5.914-5.239,9.658
	c-0.685,1.77-0.098,3.07,2.884,3.07h18.543c2.16,0,4.037-0.802,5.035-3.04c0-0.01,0.009-0.02,0.009-0.03
	c1.526-3.744,3.354-6.969,5.24-9.658C403.912,1799.169,403.971,1799.081,404.029,1798.994z M404.029,1918.917
	c0.82-1.3,0.343-2.004-1.906-2.004h-18.427c-3.685,0-5.483,1.104-6.324,2.268c-1.896,2.688-3.725,5.904-5.239,9.648
	c-0.685,1.77-0.098,3.08,2.884,3.08h18.543c2.171,0,4.058-0.821,5.044-3.08c1.526-3.744,3.354-6.959,5.24-9.648
	C403.912,1919.092,403.971,1919.004,404.029,1918.917z M404.029,2158.752c0.82-1.3,0.343-1.994-1.906-1.994h-18.427
	c-3.665,0-5.464,1.095-6.314,2.238c0,0.01-0.01,0.01-0.01,0.02c-1.887,2.688-3.714,5.915-5.239,9.659
	c-0.685,1.769-0.098,3.067,2.884,3.067h18.543c2.16,0,4.037-0.811,5.035-3.039c0-0.01,0.009-0.02,0.009-0.028
	c1.526-3.744,3.354-6.971,5.24-9.659C403.912,2158.928,403.971,2158.84,404.029,2158.752z M404.029,2278.675
	c0.82-1.3,0.343-2.004-1.906-2.004h-18.427c-3.685,0-5.483,1.104-6.324,2.268c-1.887,2.688-3.714,5.905-5.239,9.649
	c-0.685,1.769-0.098,3.078,2.884,3.078h18.543c2.171,0,4.058-0.82,5.044-3.078c1.526-3.744,3.354-6.961,5.24-9.649
	C403.912,2278.851,403.971,2278.763,404.029,2278.675z M397.363,1563.438c0.703-1.896,0.986-5.376-2.288-5.366
	c-15.074,0.029-22.111,6.061-23.911,7.928c-0.097,0.088-0.185,0.186-0.283,0.283c-2.805,2.767-9.335,10.694-9.335,24.351
	c0,3.45,0.371,6.51,0.978,9.218c0.449,1.994,2.521,3.842,7.615,1.457c2.512-1.075,5.591-1.789,9.325-1.789h13.362
	c0,0,5.494,0.704,3.627-4.525c-0.322-1.584-0.488-3.227-0.488-4.907v-18.534C395.965,1568.532,396.474,1565.824,397.363,1563.438z
	 M392.064,1722.042c1.711,0,3.226-0.851,2.942-3.754c0-0.009,0-0.009,0-0.02c-0.313-2.444-0.479-5.015-0.479-7.722
	c0-0.43,0-0.851,0.02-1.271h-0.02c0-1.564-0.664-2.219-2.463-2.219h-21.223c-1.887,0-2.619,0.831-2.756,1.759
	c-0.021,0.567-0.029,1.144-0.029,1.73c0,2.297,0.127,4.506,0.352,6.618c0.596,4.174,2.346,4.878,5.914,4.878H392.064z
	 M392.064,2081.801c1.711,0,3.235-0.85,2.942-3.764v-0.009c-0.313-2.444-0.479-5.016-0.479-7.724c0-0.43,0-0.85,0.02-1.271h-0.02
	c0-1.564-0.664-2.219-2.463-2.219h-21.223c-1.887,0-2.629,0.831-2.756,1.77c-0.021,0.567-0.029,1.144-0.029,1.72
	c0,2.297,0.127,4.507,0.352,6.618c0.596,4.174,2.346,4.878,5.914,4.878H392.064z M392.064,1841.965c1.7,0,3.226-0.851,2.942-3.744
	c0-0.009,0-0.029,0-0.039c-0.313-2.444-0.479-5.015-0.479-7.712c0-0.43,0-0.85,0.02-1.271h-0.02c0-1.574-0.664-2.219-2.463-2.219
	h-21.223c-1.887,0-2.619,0.831-2.756,1.76c-0.021,0.566-0.029,1.144-0.029,1.73c0,2.297,0.127,4.506,0.352,6.618
	c0.596,4.164,2.346,4.877,5.914,4.877H392.064z M392.064,1961.888c1.7,0,3.226-0.85,2.942-3.744c0-0.01,0-0.028,0-0.038
	c-0.313-2.444-0.479-5.016-0.479-7.713c0-0.43,0-0.86,0.02-1.281h-0.02c0-1.564-0.664-2.219-2.463-2.219h-21.223
	c-1.887,0-2.619,0.83-2.756,1.77c-0.021,0.567-0.029,1.144-0.029,1.73c0,2.296,0.127,4.506,0.352,6.617
	c0.596,4.165,2.346,4.878,5.914,4.878H392.064z M392.064,2201.725c1.7,0,3.226-0.851,2.942-3.744c0-0.011,0-0.03,0-0.039
	c-0.313-2.444-0.479-5.015-0.479-7.714c0-0.43,0-0.85,0.02-1.27h-0.02c0-1.575-0.664-2.22-2.463-2.22h-21.223
	c-1.887,0-2.629,0.831-2.756,1.77c-0.01,0.01-0.01,0.02-0.01,0.039c-0.011,0.558-0.02,1.113-0.02,1.681
	c0,2.298,0.127,4.507,0.352,6.618c0.596,4.164,2.346,4.879,5.914,4.879H392.064z"/>
</svg>
